<svg width="23" height="23" viewBox="0 0 23 23" fill="none" xmlns="http://www.w3.org/2000/svg">
<path fill-rule="evenodd" clip-rule="evenodd" d="M9.34375 5.75C9.34375 5.55938 9.41948 5.37656 9.55427 5.24177C9.68906 5.10698 9.87188 5.03125 10.0625 5.03125H17.25C17.4406 5.03125 17.6234 5.10698 17.7582 5.24177C17.893 5.37656 17.9688 5.55938 17.9688 5.75V12.9375C17.9688 13.1281 17.893 13.3109 17.7582 13.4457C17.6234 13.5805 17.4406 13.6562 17.25 13.6562C17.0594 13.6562 16.8766 13.5805 16.7418 13.4457C16.607 13.3109 16.5312 13.1281 16.5312 12.9375V6.46875H10.0625C9.87188 6.46875 9.68906 6.39302 9.55427 6.25823C9.41948 6.12344 9.34375 5.94062 9.34375 5.75Z" fill="#4DD70D"/>
<path fill-rule="evenodd" clip-rule="evenodd" d="M17.7589 5.24113C17.8258 5.30789 17.8789 5.38721 17.9151 5.47453C17.9514 5.56185 17.97 5.65546 17.97 5.75C17.97 5.84454 17.9514 5.93816 17.9151 6.02548C17.8789 6.1128 17.8258 6.19211 17.7589 6.25888L4.82138 19.1964C4.68641 19.3313 4.50337 19.4072 4.3125 19.4072C4.12163 19.4072 3.93859 19.3313 3.80362 19.1964C3.66866 19.0614 3.59284 18.8784 3.59284 18.6875C3.59284 18.4966 3.66866 18.3136 3.80362 18.1786L16.7411 5.24113C16.8079 5.17419 16.8872 5.12109 16.9745 5.08485C17.0618 5.04862 17.1555 5.02997 17.25 5.02997C17.3445 5.02997 17.4382 5.04862 17.5255 5.08485C17.6128 5.12109 17.6921 5.17419 17.7589 5.24113Z" fill="#4DD70D"/>
</svg>
