<svg width="19" height="19" viewBox="0 0 19 19" fill="none" xmlns="http://www.w3.org/2000/svg">
<path fill-rule="evenodd" clip-rule="evenodd" d="M14.25 8.90625C14.4075 8.90625 14.5585 8.96881 14.6698 9.08016C14.7812 9.19151 14.8438 9.34253 14.8438 9.5V15.4375C14.8438 15.595 14.7812 15.746 14.6698 15.8573C14.5585 15.9687 14.4075 16.0312 14.25 16.0312H8.3125C8.15503 16.0312 8.00401 15.9687 7.89266 15.8573C7.78131 15.746 7.71875 15.595 7.71875 15.4375C7.71875 15.28 7.78131 15.129 7.89266 15.0177C8.00401 14.9063 8.15503 14.8438 8.3125 14.8438H13.6562V9.5C13.6562 9.34253 13.7188 9.19151 13.8302 9.08016C13.9415 8.96881 14.0925 8.90625 14.25 8.90625Z" fill="#ED1010"/>
<path fill-rule="evenodd" clip-rule="evenodd" d="M3.14212 4.32962C3.19728 4.27432 3.2628 4.23045 3.33493 4.20052C3.40707 4.17059 3.4844 4.15518 3.5625 4.15518C3.6406 4.15518 3.71793 4.17059 3.79006 4.20052C3.8622 4.23045 3.92772 4.27432 3.98287 4.32962L14.6704 15.0171C14.7819 15.1286 14.8445 15.2798 14.8445 15.4375C14.8445 15.5952 14.7819 15.7464 14.6704 15.8579C14.5589 15.9694 14.4077 16.032 14.25 16.032C14.0923 16.032 13.9411 15.9694 13.8296 15.8579L3.14212 5.17037C3.08683 5.11521 3.04296 5.04969 3.01303 4.97756C2.9831 4.90542 2.96769 4.82809 2.96769 4.74999C2.96769 4.67189 2.9831 4.59456 3.01303 4.52243C3.04296 4.45029 3.08683 4.38477 3.14212 4.32962Z" fill="#ED1010"/>
</svg>
