<svg width="35" height="43" viewBox="0 0 35 43" fill="none" xmlns="http://www.w3.org/2000/svg">
<path d="M27.5099 8.60407C27.5099 9.40182 27.5099 10.1996 27.5099 10.9973C27.5099 12.8808 27.5099 14.7644 27.5099 16.6479C27.5099 18.8525 27.5099 21.0572 27.5099 23.2618C27.5099 25.023 27.5099 26.7842 27.5099 28.5453C27.5099 29.0206 27.5099 29.496 27.5099 29.9713C27.5099 30.0659 27.5099 30.1604 27.5099 30.2549C27.5099 30.2615 27.5099 30.2681 27.5099 30.2747C27.5099 30.2755 27.5099 30.2763 27.5099 30.2771C27.5099 30.3239 27.5069 30.3702 27.5032 30.4168C27.5207 30.201 27.5015 30.4015 27.4887 30.4534C27.478 30.4969 27.4632 30.5393 27.4484 30.5816C27.3961 30.7313 27.5195 30.4342 27.4493 30.5757C27.4232 30.6282 27.2555 30.861 27.3919 30.6902C27.337 30.7589 27.2729 30.8201 27.2065 30.878C27.0879 30.9813 27.3406 30.7848 27.2102 30.8736C27.1611 30.9069 27.1086 30.9351 27.0559 30.9624C26.9142 31.0357 27.2125 30.9055 27.0619 30.9615C27.0193 30.9773 26.9753 30.9892 26.9314 31.0011C26.8869 31.0131 26.8414 31.021 26.796 31.0289C27.004 30.9929 26.849 31.0189 26.7999 31.0212C26.78 31.0221 26.76 31.0219 26.7401 31.0219C26.7068 31.0219 26.6736 31.0219 26.6403 31.0219C26.4802 31.0219 26.3201 31.0219 26.16 31.0219C25.5263 31.0219 24.8926 31.0219 24.2589 31.0219C22.222 31.0219 20.1852 31.0219 18.1484 31.0219C16.009 31.0219 13.8697 31.0219 11.7304 31.0219C10.5966 31.0219 9.46284 31.0219 8.32907 31.0219C8.29728 31.0219 8.26556 31.0217 8.23374 31.0212C8.18757 31.0205 8.02429 30.9987 8.23757 31.0289C8.19191 31.0224 8.14699 31.0117 8.10218 31.0011C8.05789 30.9906 8.01468 30.976 7.97165 30.9615C7.81935 30.9101 8.1216 31.0314 7.97767 30.9624C7.92421 30.9367 7.68741 30.7718 7.86122 30.906C7.77956 30.8429 7.70799 30.7683 7.64165 30.6902C7.78113 30.8544 7.61331 30.63 7.58429 30.5757C7.50971 30.4364 7.64216 30.7296 7.58518 30.5816C7.56905 30.5398 7.55695 30.4965 7.54488 30.4534C7.53265 30.4096 7.52465 30.3649 7.51665 30.3203C7.55326 30.5247 7.5268 30.3723 7.52448 30.3241C7.52369 30.3077 7.52373 30.2911 7.52373 30.2746C7.52373 30.2537 7.52373 30.2328 7.52373 30.2119C7.52373 29.8725 7.52373 29.5331 7.52373 29.1938C7.52373 27.5985 7.52373 26.0031 7.52373 24.4078C7.52373 22.2275 7.52373 20.0473 7.52373 17.867C7.52373 15.8665 7.52373 13.8659 7.52373 11.8654C7.52373 10.8091 7.52373 9.75284 7.52373 8.69659C7.52373 8.66904 7.52373 8.64146 7.52373 8.61392C7.52373 8.61062 7.52373 8.6073 7.52373 8.604C7.52373 8.55724 7.5267 8.51092 7.53049 8.46436C7.51399 8.66844 7.52383 8.52012 7.53412 8.47165C7.54345 8.42764 7.55698 8.3846 7.57045 8.3417C7.57982 8.31345 7.59007 8.28554 7.60121 8.25789C7.55705 8.3579 7.55141 8.37372 7.58429 8.30542C7.61037 8.25288 7.77813 8.02015 7.64165 8.191C7.69657 8.1222 7.7607 8.06106 7.82711 8.00318C7.94564 7.89985 7.69298 8.0963 7.82345 8.00758C7.86019 7.98255 7.89916 7.96092 7.93802 7.93932C7.97678 7.91775 8.12153 7.85722 7.92934 7.93542C7.98543 7.91261 8.04381 7.89585 8.10222 7.88006C8.14672 7.86803 8.19221 7.86017 8.2376 7.85231C8.02969 7.88829 8.18469 7.86229 8.23378 7.86C8.25309 7.8591 8.27264 7.85927 8.29205 7.85927C8.33143 7.85927 8.37084 7.85927 8.41021 7.85927C9.37469 7.85927 10.3391 7.85927 11.3036 7.85927C11.503 7.85927 11.7023 7.85927 11.9016 7.85927C11.6623 7.62411 11.4231 7.38895 11.1838 7.1538C11.1838 7.56028 11.1838 7.9668 11.1838 8.37328C11.1838 8.56161 11.1838 8.74994 11.1838 8.93826C11.1838 9.42235 11.5707 9.83323 12.0725 9.83323C12.5332 9.83323 12.9939 9.83323 13.4546 9.83323C15.5566 9.83323 17.6585 9.83323 19.7604 9.83323C20.608 9.83323 21.4556 9.83323 22.3032 9.83323C22.5026 9.83323 22.7019 9.83323 22.9013 9.83323C23.0159 9.83323 23.1351 9.83028 23.2417 9.78603C23.5964 9.63906 23.8499 9.35536 23.8499 8.95936C23.8499 8.90037 23.8499 8.84138 23.8499 8.78239C23.8499 8.23955 23.8499 7.69667 23.8499 7.15383C23.6106 7.38899 23.3714 7.62414 23.1321 7.8593C23.9636 7.8593 24.7952 7.8593 25.6267 7.8593C25.9907 7.8593 26.3547 7.8593 26.7187 7.8593C26.7773 7.8593 26.8357 7.86138 26.8943 7.86595C26.6866 7.84972 26.8375 7.8594 26.8869 7.86951C26.9317 7.87868 26.9754 7.89199 27.0191 7.90522C27.0629 7.91852 27.204 7.98289 27.0156 7.89948C27.0701 7.9236 27.1217 7.95336 27.1728 7.98376C27.2103 8.00614 27.3339 8.09986 27.1724 7.97523C27.2074 8.00224 27.2398 8.03224 27.2721 8.06217C27.3045 8.09214 27.334 8.12486 27.3635 8.15751C27.4686 8.27405 27.2687 8.02569 27.359 8.15392C27.3932 8.20253 27.5181 8.46137 27.4324 8.25799C27.4733 8.35508 27.4985 8.45774 27.517 8.56094C27.4783 8.3451 27.5091 8.55197 27.5099 8.60407C27.5161 8.98852 27.8317 9.30954 28.2277 9.30954C28.6143 9.30954 28.9517 8.98865 28.9455 8.60407C28.9294 7.61181 28.2275 6.70572 27.2233 6.49969C26.8572 6.42458 26.4727 6.44833 26.1011 6.44833C25.1456 6.44833 24.1901 6.44833 23.2347 6.44833C23.2005 6.44833 23.1663 6.44833 23.1321 6.44833C22.7408 6.44833 22.4143 6.76922 22.4143 7.1538C22.4143 7.46152 22.4143 7.76927 22.4143 8.07699C22.4143 8.2812 22.4143 8.48542 22.4143 8.68964C22.4143 8.75662 22.4143 8.82357 22.4143 8.89056C22.4143 9.07674 22.3804 8.83123 22.4643 8.72451C22.5501 8.64015 22.636 8.5558 22.7218 8.47141C22.8314 8.38823 23.0798 8.42226 22.8888 8.42226C22.8089 8.42226 22.729 8.42226 22.6492 8.42226C22.354 8.42226 22.0587 8.42226 21.7635 8.42226C20.8044 8.42226 19.8454 8.42226 18.8864 8.42226C16.883 8.42226 14.8797 8.42226 12.8763 8.42226C12.6778 8.42226 12.4794 8.42226 12.2809 8.42226C12.2276 8.42226 12.1743 8.42226 12.121 8.42226C11.96 8.42226 12.2107 8.39458 12.3119 8.47141C12.3977 8.55576 12.4835 8.64012 12.5694 8.72451C12.6493 8.82619 12.6193 9.07324 12.6193 8.90443C12.6193 8.84101 12.6193 8.77758 12.6193 8.71416C12.6193 8.50178 12.6193 8.28937 12.6193 8.07699C12.6193 7.76927 12.6193 7.46152 12.6193 7.1538C12.6193 6.76922 12.2929 6.44833 11.9016 6.44833C11.07 6.44833 10.2385 6.44833 9.40696 6.44833C9.04298 6.44833 8.679 6.44833 8.31499 6.44833C7.49033 6.44833 6.69135 6.89496 6.32508 7.63301C6.0918 8.10306 6.08818 8.56648 6.08818 9.06535C6.08818 9.59542 6.08818 10.1255 6.08818 10.6556C6.08818 12.4804 6.08818 14.3052 6.08818 16.13C6.08818 18.3371 6.08818 20.5442 6.08818 22.7513C6.08818 24.5761 6.08818 26.4009 6.08818 28.2256C6.08818 28.7557 6.08818 29.2858 6.08818 29.8159C6.08818 29.9436 6.08818 30.0712 6.08818 30.1988C6.08818 30.5698 6.17011 30.9102 6.32508 31.2482C6.65874 31.9763 7.4944 32.4329 8.28829 32.4329C8.37904 32.4329 8.46982 32.4329 8.56057 32.4329C9.08471 32.4329 9.60886 32.4329 10.133 32.4329C12.0671 32.4329 14.0012 32.4329 15.9352 32.4329C18.1269 32.4329 20.3186 32.4329 22.5103 32.4329C23.8515 32.4329 25.1928 32.4329 26.5341 32.4329C26.6066 32.4329 26.6792 32.4329 26.7518 32.4329C27.7402 32.4329 28.6123 31.7597 28.873 30.8285C28.9707 30.4795 28.9454 30.0979 28.9454 29.7386C28.9454 28.352 28.9454 26.9654 28.9454 25.5789C28.9454 23.4544 28.9454 21.33 28.9454 19.2056C28.9454 17.1079 28.9454 15.0102 28.9454 12.9125C28.9454 11.6062 28.9454 10.3 28.9454 8.99366C28.9454 8.86379 28.9454 8.73395 28.9454 8.60407C28.9454 8.21952 28.6189 7.8986 28.2277 7.8986C27.8364 7.8986 27.5099 8.21952 27.5099 8.60407Z" fill="white"/>
<path d="M22.9682 4.51469C21.8068 4.51469 20.6455 4.51469 19.4842 4.51469C19.7235 4.74984 19.9627 4.985 20.202 5.22016C20.202 5.01423 20.202 4.8083 20.202 4.60237C20.202 4.14294 20.0987 3.72097 19.894 3.30891C19.4325 2.37964 18.3182 1.80031 17.2808 1.90996C16.3431 2.00906 15.4691 2.56047 15.0843 3.42659C14.9163 3.80478 14.8317 4.18795 14.8317 4.60237C14.8317 4.8083 14.8317 5.01423 14.8317 5.22016C15.071 4.985 15.3102 4.74984 15.5495 4.51469C14.7097 4.51469 13.8699 4.51469 13.0301 4.51469C12.7099 4.51469 12.3897 4.51469 12.0695 4.51469C11.5577 4.51469 11.1838 4.93558 11.1838 5.42108C11.1838 5.5527 11.1838 5.68432 11.1838 5.81594C11.1838 6.78273 11.1838 7.74953 11.1838 8.71629C11.1838 8.79957 11.1838 8.88288 11.1838 8.96619C11.1838 9.45035 11.6014 9.83322 12.0857 9.83322C12.2459 9.83322 12.4061 9.83322 12.5663 9.83322C14.4718 9.83322 16.3773 9.83322 18.2828 9.83322C19.8312 9.83322 21.3796 9.83322 22.9279 9.83322C23.2782 9.83322 23.5197 9.67096 23.7295 9.40402C23.8601 9.23783 23.8499 9.0007 23.8499 8.79954C23.8499 8.36295 23.8499 7.9264 23.8499 7.48982C23.8499 6.97163 23.8499 6.45342 23.8499 5.93523C23.8499 5.77979 23.8499 5.62432 23.8499 5.46885C23.8499 5.4409 23.8499 5.41292 23.8499 5.38497C23.8499 5.29376 23.838 5.19671 23.8019 5.11239C23.6742 4.81491 23.5074 4.67201 23.2026 4.54559C23.1244 4.53531 23.0463 4.525 22.9682 4.51469C22.5793 4.46336 22.2504 4.87441 22.2504 5.22016C22.2504 5.4065 22.3266 5.5873 22.4606 5.71899C22.609 5.86479 22.769 5.89932 22.9682 5.92562C22.9321 5.92455 22.8961 5.92351 22.8601 5.92243C22.7545 5.86196 22.649 5.80146 22.5434 5.74099C22.3941 5.62768 22.4143 5.23897 22.4143 5.41369C22.4143 5.4489 22.4143 5.48414 22.4143 5.51934C22.4143 5.64975 22.4143 5.78013 22.4143 5.91054C22.4143 6.32613 22.4143 6.74172 22.4143 7.15727C22.4143 7.57575 22.4143 7.99423 22.4143 8.4127C22.4143 8.54661 22.4143 8.68051 22.4143 8.81442C22.4143 8.85191 22.4143 8.8894 22.4143 8.92689C22.4143 9.06587 22.3903 8.81868 22.4643 8.72455C22.5502 8.6402 22.636 8.55585 22.7218 8.47146C22.8314 8.38828 23.0798 8.42231 22.8888 8.42231C22.8089 8.42231 22.7291 8.42231 22.6492 8.42231C22.354 8.42231 22.0587 8.42231 21.7635 8.42231C20.8045 8.42231 19.8455 8.42231 18.8864 8.42231C16.883 8.42231 14.8797 8.42231 12.8763 8.42231C12.6779 8.42231 12.4794 8.42231 12.281 8.42231C12.2276 8.42231 12.1743 8.42231 12.121 8.42231C11.9601 8.42231 12.2107 8.39463 12.3119 8.47146C12.3977 8.55581 12.4835 8.64017 12.5694 8.72455C12.6414 8.8162 12.6194 9.06315 12.6194 8.93431C12.6194 8.89911 12.6194 8.86387 12.6194 8.82866C12.6194 8.69825 12.6194 8.56787 12.6194 8.43746C12.6194 8.02187 12.6194 7.60629 12.6194 7.19073C12.6194 6.77225 12.6194 6.35378 12.6194 5.9353C12.6194 5.80139 12.6194 5.66749 12.6194 5.53359C12.6194 5.49609 12.6194 5.4586 12.6194 5.42111C12.6194 5.23574 12.6413 5.62637 12.4903 5.74099C12.3848 5.80146 12.2792 5.86196 12.1736 5.92243C12.1194 5.94491 12.0202 5.92562 12.0931 5.92562C12.1284 5.92562 12.1637 5.92562 12.1989 5.92562C12.3254 5.92562 12.4518 5.92562 12.5783 5.92562C12.9824 5.92562 13.3864 5.92562 13.7905 5.92562C14.3768 5.92562 14.9632 5.92562 15.5495 5.92562C15.9407 5.92562 16.2673 5.60474 16.2673 5.22016C16.2673 5.03841 16.2673 4.8567 16.2673 4.67496C16.2673 4.59716 16.2667 4.51942 16.2695 4.44162C16.271 4.41075 16.2732 4.37988 16.2763 4.3491C16.2902 4.18533 16.2477 4.51583 16.2771 4.35542C16.2933 4.2668 16.319 4.18016 16.3477 4.09477C16.3575 4.06671 16.368 4.03887 16.3791 4.01128C16.3054 4.20045 16.3605 4.05879 16.3806 4.01847C16.4201 3.9396 16.4678 3.86495 16.5178 3.79219C16.5624 3.73162 16.5515 3.74411 16.4852 3.82964C16.5126 3.79518 16.5422 3.76256 16.5718 3.73C16.6311 3.66483 16.6969 3.60574 16.7644 3.54903C16.8235 3.50207 16.8101 3.51195 16.7244 3.57873C16.7602 3.5526 16.7978 3.52884 16.8352 3.50516C16.9107 3.45749 16.9908 3.41755 17.0721 3.38049C16.8697 3.47284 17.1039 3.37458 17.1554 3.35916C17.2124 3.3421 17.513 3.29087 17.2808 3.3209C17.3591 3.31079 17.4381 3.30803 17.5169 3.30713C17.5726 3.30645 17.6282 3.31015 17.6838 3.31398C17.8705 3.32681 17.5272 3.28583 17.7094 3.31858C17.7974 3.3344 17.8833 3.3597 17.9682 3.38718C18.1398 3.44281 17.8292 3.3213 17.9928 3.39447C18.0406 3.41587 18.0866 3.44103 18.1326 3.46616C18.173 3.48823 18.3986 3.6483 18.2457 3.52989C18.3276 3.59331 18.4015 3.66604 18.4722 3.74112C18.4954 3.76649 18.518 3.79245 18.5398 3.81899C18.4218 3.67951 18.5299 3.81244 18.5501 3.84227C18.6084 3.92827 18.6559 4.02079 18.6994 4.11469C18.6183 3.93946 18.7185 4.19706 18.731 4.24264C18.7451 4.29394 18.7548 4.34628 18.7646 4.39852C18.7298 4.21191 18.7606 4.38706 18.7633 4.42553C18.7692 4.50817 18.7664 4.59212 18.7664 4.67493C18.7664 4.85667 18.7664 5.03838 18.7664 5.22012C18.7664 5.6047 19.093 5.92559 19.4842 5.92559C20.6455 5.92559 21.8068 5.92559 22.9682 5.92559C23.3594 5.92559 23.6859 5.6047 23.6859 5.22012C23.6859 4.83554 23.3594 4.51469 22.9682 4.51469Z" fill="white"/>
<path d="M17.5169 5.29476C17.9081 5.29476 18.2346 4.97384 18.2346 4.58929C18.2346 4.20471 17.9081 3.88382 17.5169 3.88382C17.1256 3.88382 16.7991 4.20471 16.7991 4.58929C16.7991 4.97384 17.1256 5.29476 17.5169 5.29476Z" fill="white"/>
<path d="M10.4757 15.0834C11.6292 15.0834 12.7826 15.0834 13.9361 15.0834C16.1298 15.0834 18.3235 15.0834 20.5172 15.0834C21.8512 15.0834 23.1852 15.0834 24.5191 15.0834C24.5321 15.0834 24.5451 15.0834 24.5581 15.0834C24.9493 15.0834 25.2759 14.7625 25.2759 14.378C25.2759 13.9934 24.9493 13.6725 24.5581 13.6725C23.4046 13.6725 22.2512 13.6725 21.0977 13.6725C18.904 13.6725 16.7103 13.6725 14.5166 13.6725C13.1826 13.6725 11.8487 13.6725 10.5147 13.6725C10.5017 13.6725 10.4888 13.6725 10.4757 13.6725C10.0844 13.6725 9.75797 13.9934 9.75797 14.378C9.75797 14.7625 10.0844 15.0834 10.4757 15.0834Z" fill="white"/>
<path d="M10.4757 20.5487C11.6292 20.5487 12.7826 20.5487 13.9361 20.5487C16.1298 20.5487 18.3235 20.5487 20.5172 20.5487C21.8512 20.5487 23.1852 20.5487 24.5191 20.5487C24.5321 20.5487 24.5451 20.5487 24.5581 20.5487C24.9493 20.5487 25.2759 20.2278 25.2759 19.8432C25.2759 19.4587 24.9493 19.1377 24.5581 19.1377C23.4046 19.1377 22.2512 19.1377 21.0977 19.1377C18.904 19.1377 16.7103 19.1377 14.5166 19.1377C13.1826 19.1377 11.8487 19.1377 10.5147 19.1377C10.5017 19.1377 10.4888 19.1377 10.4757 19.1377C10.0844 19.1377 9.75797 19.4587 9.75797 19.8432C9.75797 20.2278 10.0844 20.5487 10.4757 20.5487Z" fill="white"/>
<path d="M10.4757 26.014C11.481 26.014 12.4862 26.014 13.4915 26.014C13.8828 26.014 14.2093 25.6931 14.2093 25.3085C14.2093 24.924 13.8828 24.603 13.4915 24.603C12.4862 24.603 11.481 24.603 10.4757 24.603C10.0844 24.603 9.75792 24.924 9.75792 25.3085C9.75792 25.6931 10.0844 26.014 10.4757 26.014Z" fill="white"/>
<path d="M24.0505 22.9182C22.8768 24.0718 21.703 25.2254 20.5293 26.3791C19.9997 26.8995 19.4702 27.42 18.9407 27.9404C19.279 27.9404 19.6174 27.9404 19.9558 27.9404C19.1724 27.1706 18.3891 26.4007 17.6058 25.6307C17.3293 25.359 16.8672 25.359 16.5907 25.6307C16.3141 25.9026 16.3141 26.3566 16.5907 26.6285C17.374 27.3983 18.1573 28.1682 18.9406 28.9381C19.2172 29.2099 19.6792 29.2099 19.9557 28.9381C21.1294 27.7845 22.3032 26.6308 23.4769 25.4772C24.0065 24.9568 24.536 24.4363 25.0656 23.9159C25.3421 23.644 25.3421 23.19 25.0656 22.9182C24.7891 22.6464 24.327 22.6464 24.0505 22.9182Z" fill="white"/>
</svg>
