<svg width="77" height="79" viewBox="0 0 77 79" fill="none" xmlns="http://www.w3.org/2000/svg">
<path d="M6.00791 61.7364H52.5212V31.5412L29.2646 13.2354L5.97101 31.5412L6.00791 61.7364Z" fill="white"/>
<path d="M31.5256 33.854H45.5184V52.524H31.5256V33.854Z" fill="#9EB6F4"/>
<path d="M35.0786 49.0792V33.854H31.5256V52.524H45.5184V49.0792H35.0786Z" fill="#6E91EF"/>
<path d="M44.4059 1.38712H49.0452V12.9359H44.4059V1.38712Z" fill="#E8AB4C"/>
<path d="M9.47796 32.9428L31.9078 15.3158L29.2646 13.2354L5.97101 31.5412L6.00791 61.7364H9.51315L9.47796 32.9428Z" fill="#CAD8EB"/>
<path d="M3.68231 61.7364H54.8761V66.1851H3.68231V61.7364Z" fill="#9EB6F4"/>
<path d="M44.4913 12.9353L29.2645 1.59999L14.8401 12.9358" fill="#6E91EF"/>
<path d="M13.0366 33.854H26.913V61.814H13.0366V33.854Z" fill="#EFC17A"/>
<path d="M16.034 58.5596V33.854H13.0366V61.814H26.913V58.5596H16.034Z" fill="#E8AB4C"/>
<path d="M35.0529 12.9358H57.1725V31.5411H52.5455L29.2645 13.2354L5.97094 31.5411H1.35651V12.9358H23.4244" fill="#9EB6F4"/>
<path d="M28.7811 12.9358L9.45944 28.1201H4.84501V12.9358H1.35651V31.5411H5.97094L29.2645 13.2354L28.7811 12.9358Z" fill="#6E91EF"/>
<path d="M4.84503 16.4463H7.1707V18.7719H4.84503V16.4463Z" fill="white"/>
<path d="M4.84503 21.0197H7.1707V25.7746H4.84503V21.0197Z" fill="white"/>
<path d="M37.3528 44.1953H39.6785V49.1193H37.3528V44.1953Z" fill="white"/>
<path d="M37.3528 39.6219H39.6785V41.9476H37.3528V39.6219Z" fill="white"/>
<path d="M37.3528 33.8886H39.6785V37.2559H37.3528V33.8886Z" fill="white"/>
<path d="M60.59 38.6126L45.5184 46.637V56.1026C45.5184 63.1335 49.161 69.6626 55.1442 73.3556L60.59 76.717L66.0358 73.3556C72.0188 69.6626 75.6616 63.1337 75.6616 56.1026V46.637L60.59 38.6126Z" fill="#9CE3BF"/>
<path d="M58.4001 71.649C52.4171 67.956 48.7743 63.9605 48.7743 54.396V44.9304L60.6154 38.6261L60.5901 38.6126L45.5186 46.637V56.1026C45.5186 63.1335 49.1612 69.6626 55.1443 73.3556L60.5901 76.717L63.6005 74.8589L58.4001 71.649Z" fill="#52CD8D"/>
<path d="M60.6486 66.3728C65.1591 66.3728 68.8157 62.7163 68.8157 58.2057C68.8157 53.6951 65.1591 50.0386 60.6486 50.0386C56.138 50.0386 52.4814 53.6951 52.4814 58.2057C52.4814 62.7163 56.138 66.3728 60.6486 66.3728Z" fill="#EFC17A"/>
<path d="M4.84524 34.9705H7.17091V31.9547L29.2646 14.5919L51.3586 31.9643V38.421H53.6842V32.5812H58.3356V11.6503H50.2083V7.07861H47.8826V11.6503H45.5691V2.42728H47.8826V4.75295H50.2083V0.101613H43.2434V10.4341L29.2457 0.0137024L14.438 11.6504H0.193909V32.5814H4.84524V34.9705ZM2.51958 13.9761H23.4247V11.6504H18.2017L29.2838 2.94141L40.9827 11.6504H35.053V13.9761H56.0099V30.2557H52.9481L29.2649 11.6337L5.56883 30.2557H2.51958V13.9761Z" fill="black"/>
<path d="M4.84521 37.296H7.17088V39.6216H4.84521V37.296Z" fill="black"/>
<path d="M23.4506 25.7072H25.7762V28.0329H23.4506V25.7072Z" fill="black"/>
<path d="M28.1018 25.7072H30.4275V28.0329H28.1018V25.7072Z" fill="black"/>
<path d="M21.0989 46.5884H23.4246V48.9141H21.0989V46.5884Z" fill="black"/>
<path d="M32.7533 25.7072H35.079V28.0329H32.7533V25.7072Z" fill="black"/>
<path d="M46.6814 42.9166V32.5688H30.363V53.5643H41.9848V51.2386H32.6886V34.8944H44.3557V42.9166H46.6814Z" fill="black"/>
<path d="M4.84532 62.7767H41.9847V60.451H28.0759V32.5688H11.8738V60.451H7.17083V41.9476H4.84516V60.451H2.51965V67.5356H44.3103V65.21H4.84532V62.7767ZM14.1995 34.8944H25.7503V60.451H14.1995V34.8944Z" fill="black"/>
<path d="M60.59 37.2952L44.3557 45.9386V56.1027C44.3557 63.4631 48.2699 70.479 54.5335 74.3451L60.59 78.0833L66.6465 74.3451C72.91 70.4792 76.8244 63.4633 76.8244 56.1027V45.9386L60.59 37.2952ZM74.4988 56.1027C74.4988 62.7794 71.1067 68.8591 65.4251 72.3662L60.59 75.3505L55.755 72.3662C50.0732 68.8593 46.6813 62.7795 46.6813 56.1027V47.3352L60.59 39.93L74.4988 47.3352V56.1027Z" fill="black"/>
<path d="M51.3187 58.2056C51.3187 63.3501 55.5041 67.5356 60.6486 67.5356C65.7933 67.5356 69.9787 63.3501 69.9787 58.2056C69.9787 53.0609 65.7933 48.8755 60.6486 48.8755C55.5041 48.8755 51.3187 53.0611 51.3187 58.2056ZM60.6486 51.2012C64.5108 51.2012 67.6531 54.3435 67.6531 58.2056C67.6531 62.0678 64.5108 65.2099 60.6486 65.2099C56.7865 65.2099 53.6443 62.0678 53.6443 58.2056C53.6443 54.3435 56.7865 51.2012 60.6486 51.2012Z" fill="black"/>
<path d="M65.1364 56.6112L63.4918 54.9666L59.8146 58.6438L58.0386 56.8676L56.394 58.512L59.8146 61.9328L65.1364 56.6112Z" fill="black"/>
</svg>
