<svg width="64" height="64" viewBox="0 0 64 64" fill="none" xmlns="http://www.w3.org/2000/svg">
<circle cx="32" cy="32" r="32" fill="#3F89DE"/>
<path d="M41.5099 20.6041C41.5099 21.4018 41.5099 22.1996 41.5099 22.9973C41.5099 24.8808 41.5099 26.7644 41.5099 28.6479C41.5099 30.8525 41.5099 33.0572 41.5099 35.2618C41.5099 37.023 41.5099 38.7842 41.5099 40.5453C41.5099 41.0206 41.5099 41.496 41.5099 41.9713C41.5099 42.0659 41.5099 42.1604 41.5099 42.2549C41.5099 42.2615 41.5099 42.2681 41.5099 42.2747C41.5099 42.2755 41.5099 42.2763 41.5099 42.2771C41.5099 42.3239 41.5069 42.3702 41.5032 42.4168C41.5207 42.201 41.5015 42.4015 41.4887 42.4534C41.478 42.4969 41.4632 42.5393 41.4484 42.5816C41.3961 42.7313 41.5195 42.4342 41.4493 42.5757C41.4232 42.6282 41.2555 42.861 41.3919 42.6902C41.337 42.7589 41.2729 42.8201 41.2065 42.878C41.0879 42.9813 41.3406 42.7848 41.2102 42.8736C41.1611 42.9069 41.1086 42.9351 41.0559 42.9624C40.9142 43.0357 41.2125 42.9055 41.0619 42.9615C41.0193 42.9773 40.9753 42.9892 40.9314 43.0011C40.8869 43.0131 40.8414 43.021 40.796 43.0289C41.004 42.9929 40.849 43.0189 40.7999 43.0212C40.78 43.0221 40.76 43.0219 40.7401 43.0219C40.7068 43.0219 40.6736 43.0219 40.6403 43.0219C40.4802 43.0219 40.3201 43.0219 40.16 43.0219C39.5263 43.0219 38.8926 43.0219 38.2589 43.0219C36.222 43.0219 34.1852 43.0219 32.1484 43.0219C30.009 43.0219 27.8697 43.0219 25.7304 43.0219C24.5966 43.0219 23.4628 43.0219 22.3291 43.0219C22.2973 43.0219 22.2656 43.0217 22.2337 43.0212C22.1876 43.0205 22.0243 42.9987 22.2376 43.0289C22.1919 43.0224 22.147 43.0117 22.1022 43.0011C22.0579 42.9906 22.0147 42.976 21.9717 42.9615C21.8193 42.9101 22.1216 43.0314 21.9777 42.9624C21.9242 42.9367 21.6874 42.7718 21.8612 42.906C21.7796 42.8429 21.708 42.7683 21.6416 42.6902C21.7811 42.8544 21.6133 42.63 21.5843 42.5757C21.5097 42.4364 21.6422 42.7296 21.5852 42.5816C21.569 42.5398 21.5569 42.4965 21.5449 42.4534C21.5326 42.4096 21.5247 42.3649 21.5167 42.3203C21.5533 42.5247 21.5268 42.3723 21.5245 42.3241C21.5237 42.3077 21.5237 42.2911 21.5237 42.2746C21.5237 42.2537 21.5237 42.2328 21.5237 42.2119C21.5237 41.8725 21.5237 41.5331 21.5237 41.1938C21.5237 39.5985 21.5237 38.0031 21.5237 36.4078C21.5237 34.2275 21.5237 32.0473 21.5237 29.867C21.5237 27.8665 21.5237 25.8659 21.5237 23.8654C21.5237 22.8091 21.5237 21.7528 21.5237 20.6966C21.5237 20.669 21.5237 20.6415 21.5237 20.6139C21.5237 20.6106 21.5237 20.6073 21.5237 20.604C21.5237 20.5572 21.5267 20.5109 21.5305 20.4644C21.514 20.6684 21.5238 20.5201 21.5341 20.4716C21.5434 20.4276 21.557 20.3846 21.5705 20.3417C21.5798 20.3135 21.5901 20.2855 21.6012 20.2579C21.5571 20.3579 21.5514 20.3737 21.5843 20.3054C21.6104 20.2529 21.7781 20.0201 21.6416 20.191C21.6966 20.1222 21.7607 20.0611 21.8271 20.0032C21.9456 19.8998 21.693 20.0963 21.8234 20.0076C21.8602 19.9826 21.8992 19.9609 21.938 19.9393C21.9768 19.9178 22.1215 19.8572 21.9293 19.9354C21.9854 19.9126 22.0438 19.8958 22.1022 19.8801C22.1467 19.868 22.1922 19.8602 22.2376 19.8523C22.0297 19.8883 22.1847 19.8623 22.2338 19.86C22.2531 19.8591 22.2726 19.8593 22.2921 19.8593C22.3314 19.8593 22.3708 19.8593 22.4102 19.8593C23.3747 19.8593 24.3391 19.8593 25.3036 19.8593C25.503 19.8593 25.7023 19.8593 25.9016 19.8593C25.6623 19.6241 25.4231 19.389 25.1838 19.1538C25.1838 19.5603 25.1838 19.9668 25.1838 20.3733C25.1838 20.5616 25.1838 20.7499 25.1838 20.9383C25.1838 21.4223 25.5707 21.8332 26.0725 21.8332C26.5332 21.8332 26.9939 21.8332 27.4546 21.8332C29.5566 21.8332 31.6585 21.8332 33.7604 21.8332C34.608 21.8332 35.4556 21.8332 36.3032 21.8332C36.5026 21.8332 36.7019 21.8332 36.9013 21.8332C37.0159 21.8332 37.1351 21.8303 37.2417 21.786C37.5964 21.6391 37.8499 21.3554 37.8499 20.9594C37.8499 20.9004 37.8499 20.8414 37.8499 20.7824C37.8499 20.2395 37.8499 19.6967 37.8499 19.1538C37.6106 19.389 37.3714 19.6241 37.1321 19.8593C37.9636 19.8593 38.7952 19.8593 39.6267 19.8593C39.9907 19.8593 40.3547 19.8593 40.7187 19.8593C40.7773 19.8593 40.8357 19.8614 40.8943 19.866C40.6866 19.8497 40.8375 19.8594 40.8869 19.8695C40.9317 19.8787 40.9754 19.892 41.0191 19.9052C41.0629 19.9185 41.204 19.9829 41.0156 19.8995C41.0701 19.9236 41.1217 19.9534 41.1728 19.9838C41.2103 20.0061 41.3339 20.0999 41.1724 19.9752C41.2074 20.0022 41.2398 20.0322 41.2721 20.0622C41.3045 20.0921 41.334 20.1249 41.3635 20.1575C41.4686 20.274 41.2687 20.0257 41.359 20.1539C41.3932 20.2025 41.5181 20.4614 41.4324 20.258C41.4733 20.3551 41.4985 20.4577 41.517 20.5609C41.4783 20.3451 41.5091 20.552 41.5099 20.6041C41.5161 20.9885 41.8317 21.3095 42.2277 21.3095C42.6143 21.3095 42.9517 20.9887 42.9455 20.6041C42.9294 19.6118 42.2275 18.7057 41.2233 18.4997C40.8572 18.4246 40.4727 18.4483 40.1011 18.4483C39.1456 18.4483 38.1901 18.4483 37.2347 18.4483C37.2005 18.4483 37.1663 18.4483 37.1321 18.4483C36.7408 18.4483 36.4143 18.7692 36.4143 19.1538C36.4143 19.4615 36.4143 19.7693 36.4143 20.077C36.4143 20.2812 36.4143 20.4854 36.4143 20.6896C36.4143 20.7566 36.4143 20.8236 36.4143 20.8906C36.4143 21.0767 36.3804 20.8312 36.4643 20.7245C36.5501 20.6402 36.636 20.5558 36.7218 20.4714C36.8314 20.3882 37.0798 20.4223 36.8888 20.4223C36.8089 20.4223 36.729 20.4223 36.6492 20.4223C36.354 20.4223 36.0587 20.4223 35.7635 20.4223C34.8044 20.4223 33.8454 20.4223 32.8864 20.4223C30.883 20.4223 28.8797 20.4223 26.8763 20.4223C26.6778 20.4223 26.4794 20.4223 26.2809 20.4223C26.2276 20.4223 26.1743 20.4223 26.121 20.4223C25.96 20.4223 26.2107 20.3946 26.3119 20.4714C26.3977 20.5558 26.4835 20.6401 26.5694 20.7245C26.6493 20.8262 26.6193 21.0732 26.6193 20.9044C26.6193 20.841 26.6193 20.7776 26.6193 20.7142C26.6193 20.5018 26.6193 20.2894 26.6193 20.077C26.6193 19.7693 26.6193 19.4615 26.6193 19.1538C26.6193 18.7692 26.2929 18.4483 25.9016 18.4483C25.07 18.4483 24.2385 18.4483 23.407 18.4483C23.043 18.4483 22.679 18.4483 22.315 18.4483C21.4903 18.4483 20.6913 18.895 20.3251 19.633C20.0918 20.1031 20.0882 20.5665 20.0882 21.0653C20.0882 21.5954 20.0882 22.1255 20.0882 22.6556C20.0882 24.4804 20.0882 26.3052 20.0882 28.13C20.0882 30.3371 20.0882 32.5442 20.0882 34.7513C20.0882 36.5761 20.0882 38.4009 20.0882 40.2256C20.0882 40.7557 20.0882 41.2858 20.0882 41.8159C20.0882 41.9436 20.0882 42.0712 20.0882 42.1988C20.0882 42.5698 20.1701 42.9102 20.3251 43.2482C20.6587 43.9763 21.4944 44.4329 22.2883 44.4329C22.379 44.4329 22.4698 44.4329 22.5606 44.4329C23.0847 44.4329 23.6089 44.4329 24.133 44.4329C26.0671 44.4329 28.0012 44.4329 29.9352 44.4329C32.1269 44.4329 34.3186 44.4329 36.5103 44.4329C37.8515 44.4329 39.1928 44.4329 40.5341 44.4329C40.6066 44.4329 40.6792 44.4329 40.7518 44.4329C41.7402 44.4329 42.6123 43.7597 42.873 42.8285C42.9707 42.4795 42.9454 42.0979 42.9454 41.7386C42.9454 40.352 42.9454 38.9654 42.9454 37.5789C42.9454 35.4544 42.9454 33.33 42.9454 31.2056C42.9454 29.1079 42.9454 27.0102 42.9454 24.9125C42.9454 23.6062 42.9454 22.3 42.9454 20.9937C42.9454 20.8638 42.9454 20.7339 42.9454 20.6041C42.9454 20.2195 42.6189 19.8986 42.2277 19.8986C41.8364 19.8986 41.5099 20.2195 41.5099 20.6041Z" fill="white"/>
<path d="M36.9682 16.5147C35.8068 16.5147 34.6455 16.5147 33.4842 16.5147C33.7235 16.7498 33.9627 16.985 34.202 17.2202C34.202 17.0142 34.202 16.8083 34.202 16.6024C34.202 16.1429 34.0987 15.721 33.894 15.3089C33.4325 14.3796 32.3182 13.8003 31.2808 13.91C30.3431 14.0091 29.4691 14.5605 29.0843 15.4266C28.9163 15.8048 28.8317 16.188 28.8317 16.6024C28.8317 16.8083 28.8317 17.0142 28.8317 17.2202C29.071 16.985 29.3102 16.7498 29.5495 16.5147C28.7097 16.5147 27.8699 16.5147 27.0301 16.5147C26.7099 16.5147 26.3897 16.5147 26.0695 16.5147C25.5577 16.5147 25.1838 16.9356 25.1838 17.4211C25.1838 17.5527 25.1838 17.6843 25.1838 17.8159C25.1838 18.7827 25.1838 19.7495 25.1838 20.7163C25.1838 20.7996 25.1838 20.8829 25.1838 20.9662C25.1838 21.4503 25.6014 21.8332 26.0857 21.8332C26.2459 21.8332 26.4061 21.8332 26.5663 21.8332C28.4718 21.8332 30.3773 21.8332 32.2828 21.8332C33.8312 21.8332 35.3796 21.8332 36.9279 21.8332C37.2782 21.8332 37.5197 21.671 37.7295 21.404C37.8601 21.2378 37.8499 21.0007 37.8499 20.7995C37.8499 20.363 37.8499 19.9264 37.8499 19.4898C37.8499 18.9716 37.8499 18.4534 37.8499 17.9352C37.8499 17.7798 37.8499 17.6243 37.8499 17.4689C37.8499 17.4409 37.8499 17.4129 37.8499 17.385C37.8499 17.2938 37.838 17.1967 37.8019 17.1124C37.6742 16.8149 37.5074 16.672 37.2026 16.5456C37.1244 16.5353 37.0463 16.525 36.9682 16.5147C36.5793 16.4634 36.2504 16.8744 36.2504 17.2202C36.2504 17.4065 36.3266 17.5873 36.4606 17.719C36.609 17.8648 36.769 17.8993 36.9682 17.9256C36.9321 17.9245 36.8961 17.9235 36.8601 17.9224C36.7545 17.862 36.649 17.8015 36.5434 17.741C36.3941 17.6277 36.4143 17.239 36.4143 17.4137C36.4143 17.4489 36.4143 17.4841 36.4143 17.5193C36.4143 17.6498 36.4143 17.7801 36.4143 17.9105C36.4143 18.3261 36.4143 18.7417 36.4143 19.1573C36.4143 19.5757 36.4143 19.9942 36.4143 20.4127C36.4143 20.5466 36.4143 20.6805 36.4143 20.8144C36.4143 20.8519 36.4143 20.8894 36.4143 20.9269C36.4143 21.0659 36.3903 20.8187 36.4643 20.7246C36.5502 20.6402 36.636 20.5558 36.7218 20.4715C36.8314 20.3883 37.0798 20.4223 36.8888 20.4223C36.8089 20.4223 36.7291 20.4223 36.6492 20.4223C36.354 20.4223 36.0587 20.4223 35.7635 20.4223C34.8045 20.4223 33.8455 20.4223 32.8864 20.4223C30.883 20.4223 28.8797 20.4223 26.8763 20.4223C26.6779 20.4223 26.4794 20.4223 26.281 20.4223C26.2276 20.4223 26.1743 20.4223 26.121 20.4223C25.9601 20.4223 26.2107 20.3946 26.3119 20.4715C26.3977 20.5558 26.4835 20.6402 26.5694 20.7246C26.6414 20.8162 26.6194 21.0631 26.6194 20.9343C26.6194 20.8991 26.6194 20.8639 26.6194 20.8287C26.6194 20.6983 26.6194 20.5679 26.6194 20.4375C26.6194 20.0219 26.6194 19.6063 26.6194 19.1907C26.6194 18.7723 26.6194 18.3538 26.6194 17.9353C26.6194 17.8014 26.6194 17.6675 26.6194 17.5336C26.6194 17.4961 26.6194 17.4586 26.6194 17.4211C26.6194 17.2357 26.6413 17.6264 26.4903 17.741C26.3848 17.8015 26.2792 17.862 26.1736 17.9224C26.1194 17.9449 26.0202 17.9256 26.0931 17.9256C26.1284 17.9256 26.1637 17.9256 26.1989 17.9256C26.3254 17.9256 26.4518 17.9256 26.5783 17.9256C26.9824 17.9256 27.3864 17.9256 27.7905 17.9256C28.3768 17.9256 28.9632 17.9256 29.5495 17.9256C29.9407 17.9256 30.2673 17.6047 30.2673 17.2202C30.2673 17.0384 30.2673 16.8567 30.2673 16.675C30.2673 16.5972 30.2667 16.5194 30.2695 16.4416C30.271 16.4107 30.2732 16.3799 30.2763 16.3491C30.2902 16.1853 30.2477 16.5158 30.2771 16.3554C30.2933 16.2668 30.319 16.1802 30.3477 16.0948C30.3575 16.0667 30.368 16.0389 30.3791 16.0113C30.3054 16.2005 30.3605 16.0588 30.3806 16.0185C30.4201 15.9396 30.4678 15.865 30.5178 15.7922C30.5624 15.7316 30.5515 15.7441 30.4852 15.8296C30.5126 15.7952 30.5422 15.7626 30.5718 15.73C30.6311 15.6648 30.6969 15.6057 30.7644 15.549C30.8235 15.5021 30.8101 15.5119 30.7244 15.5787C30.7602 15.5526 30.7978 15.5288 30.8352 15.5052C30.9107 15.4575 30.9908 15.4175 31.0721 15.3805C30.8697 15.4728 31.1039 15.3746 31.1554 15.3592C31.2124 15.3421 31.513 15.2909 31.2808 15.3209C31.3591 15.3108 31.4381 15.308 31.5169 15.3071C31.5726 15.3065 31.6282 15.3101 31.6838 15.314C31.8705 15.3268 31.5272 15.2858 31.7094 15.3186C31.7974 15.3344 31.8833 15.3597 31.9682 15.3872C32.1398 15.4428 31.8292 15.3213 31.9928 15.3945C32.0406 15.4159 32.0866 15.441 32.1326 15.4662C32.173 15.4882 32.3986 15.6483 32.2457 15.5299C32.3276 15.5933 32.4015 15.666 32.4722 15.7411C32.4954 15.7665 32.518 15.7925 32.5398 15.819C32.4218 15.6795 32.5299 15.8124 32.5501 15.8423C32.6084 15.9283 32.6559 16.0208 32.6994 16.1147C32.6183 15.9395 32.7185 16.1971 32.731 16.2426C32.7451 16.2939 32.7548 16.3463 32.7646 16.3985C32.7298 16.2119 32.7606 16.3871 32.7633 16.4255C32.7692 16.5082 32.7664 16.5921 32.7664 16.6749C32.7664 16.8567 32.7664 17.0384 32.7664 17.2201C32.7664 17.6047 33.093 17.9256 33.4842 17.9256C34.6455 17.9256 35.8068 17.9256 36.9682 17.9256C37.3594 17.9256 37.6859 17.6047 37.6859 17.2201C37.6859 16.8355 37.3594 16.5147 36.9682 16.5147Z" fill="white"/>
<path d="M31.5169 17.2948C31.9081 17.2948 32.2346 16.9738 32.2346 16.5893C32.2346 16.2047 31.9081 15.8838 31.5169 15.8838C31.1256 15.8838 30.7991 16.2047 30.7991 16.5893C30.7991 16.9738 31.1256 17.2948 31.5169 17.2948Z" fill="white"/>
<path d="M24.4757 27.0834C25.6292 27.0834 26.7826 27.0834 27.9361 27.0834C30.1298 27.0834 32.3235 27.0834 34.5172 27.0834C35.8512 27.0834 37.1852 27.0834 38.5191 27.0834C38.5321 27.0834 38.5451 27.0834 38.5581 27.0834C38.9493 27.0834 39.2759 26.7625 39.2759 26.378C39.2759 25.9934 38.9493 25.6725 38.5581 25.6725C37.4046 25.6725 36.2512 25.6725 35.0977 25.6725C32.904 25.6725 30.7103 25.6725 28.5166 25.6725C27.1826 25.6725 25.8487 25.6725 24.5147 25.6725C24.5017 25.6725 24.4888 25.6725 24.4757 25.6725C24.0844 25.6725 23.758 25.9934 23.758 26.378C23.758 26.7625 24.0844 27.0834 24.4757 27.0834Z" fill="white"/>
<path d="M24.4757 32.5487C25.6292 32.5487 26.7826 32.5487 27.9361 32.5487C30.1298 32.5487 32.3235 32.5487 34.5172 32.5487C35.8512 32.5487 37.1852 32.5487 38.5191 32.5487C38.5321 32.5487 38.5451 32.5487 38.5581 32.5487C38.9493 32.5487 39.2759 32.2278 39.2759 31.8432C39.2759 31.4587 38.9493 31.1377 38.5581 31.1377C37.4046 31.1377 36.2512 31.1377 35.0977 31.1377C32.904 31.1377 30.7103 31.1377 28.5166 31.1377C27.1826 31.1377 25.8487 31.1377 24.5147 31.1377C24.5017 31.1377 24.4888 31.1377 24.4757 31.1377C24.0844 31.1377 23.758 31.4587 23.758 31.8432C23.758 32.2278 24.0844 32.5487 24.4757 32.5487Z" fill="white"/>
<path d="M24.4757 38.014C25.481 38.014 26.4862 38.014 27.4915 38.014C27.8828 38.014 28.2093 37.6931 28.2093 37.3085C28.2093 36.924 27.8828 36.603 27.4915 36.603C26.4862 36.603 25.481 36.603 24.4757 36.603C24.0844 36.603 23.7579 36.924 23.7579 37.3085C23.7579 37.6931 24.0844 38.014 24.4757 38.014Z" fill="white"/>
<path d="M38.0505 34.9182C36.8768 36.0718 35.703 37.2254 34.5293 38.3791C33.9997 38.8995 33.4702 39.42 32.9407 39.9404C33.279 39.9404 33.6174 39.9404 33.9558 39.9404C33.1724 39.1706 32.3891 38.4007 31.6058 37.6307C31.3293 37.359 30.8672 37.359 30.5907 37.6307C30.3141 37.9026 30.3141 38.3566 30.5907 38.6285C31.374 39.3983 32.1573 40.1682 32.9406 40.9381C33.2172 41.2099 33.6792 41.2099 33.9557 40.9381C35.1294 39.7845 36.3032 38.6308 37.4769 37.4772C38.0065 36.9568 38.536 36.4363 39.0656 35.9159C39.3421 35.644 39.3421 35.19 39.0656 34.9182C38.7891 34.6464 38.327 34.6464 38.0505 34.9182Z" fill="white"/>
</svg>
